<?xml version="1.0" encoding="UTF-8"?>
<svg id="Layer_2" data-name="Layer 2" xmlns="http://www.w3.org/2000/svg" viewBox="0 0 928.57 171.9">
  <defs>
    <style>
      .cls-1 {
        stroke: #000;
        stroke-miterlimit: 10;
        stroke-width: 6px;
      }
    </style>
  </defs>
  <g id="Layer_1-2" data-name="Layer 1">
    <g>
      <path class="cls-1" d="M3,3H56.56c29.39,0,53.33,22.04,53.33,51.43s-23.94,53.56-53.33,53.56H10.11v60.91H3V3ZM56.56,101.59c25.83,0,46.21-21.09,46.21-47.16S82.39,9.4,56.56,9.4H10.11V101.59H56.56Z"/>
      <path class="cls-1" d="M215.59,119.84H122.21l-21.09,49.06h-7.82L165.11,3h7.11l72.29,165.9h-7.82l-21.09-49.06Zm-2.84-6.4L168.66,11.53l-43.85,101.91h87.93Z"/>
      <path class="cls-1" d="M257.53,3h53.56c29.39,0,53.33,22.04,53.33,51.43s-21.8,51.43-49.3,53.33l45.5,61.15h-9.01l-45.03-60.91h-41.95v60.91h-7.11V3Zm53.56,98.59c25.83,0,46.21-21.09,46.21-47.16s-20.38-45.03-46.21-45.03h-46.45V101.59h46.45Z"/>
      <path class="cls-1" d="M488.37,168.9l-73.47-93.14-24.41,24.41v68.73h-7.11V3h7.11V91.64L478.42,3h9.24l-67.78,67.78,76.79,98.12h-8.29Z"/>
      <path class="cls-1" d="M660.65,119.84h-93.38l-41.95,49.06h-7.82L659.83,3h7.11l1.76,165.9h-7.82l-.24-49.06Zm-.12-6.4l-.76-101.91-87.17,101.91h87.93Z"/>
      <path class="cls-1" d="M697.11,9.4V78.84h81.53v6.4h-81.53v77.26h90.53v6.4h-97.64V3h97.64v6.4h-90.53Z"/>
      <path class="cls-1" d="M899.5,162.5v6.4h-92.9V3h7.11V162.5h85.79Z"/>
      <path class="cls-1" d="M918.46,168.9V3h7.11V168.9h-7.11Z"/>
    </g>
  </g>
</svg>